HIERARCHY
ROOT Hips
{
    OFFSET   0.000000   0.000000   0.000000
    CHANNELS 6 Xposition Yposition Zposition Zrotation Xrotation Yrotation
    JOINT Chest
    {
        OFFSET   0.000000   8.007230   0.000000
        CHANNELS 3 Zrotation Xrotation Yrotation
        JOINT Chest2
        {
            OFFSET   0.000000  22.077100   0.000000
            CHANNELS 3 Zrotation Xrotation Yrotation
            JOINT Neck
            {
                OFFSET   0.000000  23.254800  -0.000021
                CHANNELS 3 Zrotation Xrotation Yrotation
                JOINT Head
                {
                    OFFSET   0.000000  14.370000   1.956610
                    CHANNELS 3 Zrotation Xrotation Yrotation
                    End Site
                    {
                        OFFSET   0.000000  19.566000   0.000000
                    }
                }
            }
            JOINT LeftCollar
            {
                OFFSET   3.911900  19.017000  -0.467063
                CHANNELS 3 Zrotation Xrotation Yrotation
                JOINT LeftShoulder
                {
                    OFFSET  10.383700   0.000000   0.000000
                    CHANNELS 3 Zrotation Xrotation Yrotation
                    JOINT LeftElbow
                    {
                        OFFSET  26.662100   0.001529   0.000325
                        CHANNELS 3 Zrotation Xrotation Yrotation
                        JOINT LeftWrist
                        {
                            OFFSET  28.869000  -0.000011  -0.000096
                            CHANNELS 3 Zrotation Xrotation Yrotation
                            JOINT LeftFinger0
                            {
                                OFFSET   2.044650  -2.323460   3.252850
                                CHANNELS 3 Zrotation Xrotation Yrotation
                                JOINT LeftFinger01
                                {
                                    OFFSET   3.088130   0.000000   0.000000
                                    CHANNELS 3 Zrotation Xrotation Yrotation
                                    JOINT LeftFinger02
                                    {
                                        OFFSET   2.639460   0.000000   0.000000
                                        CHANNELS 3 Zrotation Xrotation Yrotation
                                        End Site
                                        {
                                            OFFSET   2.582190   0.000000   0.000000
                                        }
                                    }
                                }
                            }
                            JOINT LeftFinger1
                            {
                                OFFSET   8.364480   0.000000   3.252850
                                CHANNELS 3 Zrotation Xrotation Yrotation
                                JOINT LeftFinger11
                                {
                                    OFFSET   4.646930   0.000000   0.000000
                                    CHANNELS 3 Zrotation Xrotation Yrotation
                                    JOINT LeftFinger12
                                    {
                                        OFFSET   2.323460   0.000000   0.000000
                                        CHANNELS 3 Zrotation Xrotation Yrotation
                                        End Site
                                        {
                                            OFFSET   2.273050   0.000000   0.000000
                                        }
                                    }
                                }
                            }
                            JOINT LeftFinger2
                            {
                                OFFSET   8.364480   0.000016   1.078090
                                CHANNELS 3 Zrotation Xrotation Yrotation
                                JOINT LeftFinger21
                                {
                                    OFFSET   5.111620   0.000000   0.000000
                                    CHANNELS 3 Zrotation Xrotation Yrotation
                                    JOINT LeftFinger22
                                    {
                                        OFFSET   2.788160   0.000017   0.000000
                                        CHANNELS 3 Zrotation Xrotation Yrotation
                                        End Site
                                        {
                                            OFFSET   2.727660   0.000000   0.000000
                                        }
                                    }
                                }
                            }
                            JOINT LeftFinger3
                            {
                                OFFSET   7.899780   0.000015  -1.078090
                                CHANNELS 3 Zrotation Xrotation Yrotation
                                JOINT LeftFinger31
                                {
                                    OFFSET   4.646920   0.000000   0.000000
                                    CHANNELS 3 Zrotation Xrotation Yrotation
                                    JOINT LeftFinger32
                                    {
                                        OFFSET   2.323470   0.000000   0.000000
                                        CHANNELS 3 Zrotation Xrotation Yrotation
                                        End Site
                                        {
                                            OFFSET   2.273050   0.000000   0.000000
                                        }
                                    }
                                }
                            }
                            JOINT LeftFinger4
                            {
                                OFFSET   7.435090   0.000000  -3.252850
                                CHANNELS 3 Zrotation Xrotation Yrotation
                                JOINT LeftFinger41
                                {
                                    OFFSET   3.717550   0.000000   0.000000
                                    CHANNELS 3 Zrotation Xrotation Yrotation
                                    JOINT LeftFinger42
                                    {
                                        OFFSET   1.858760   0.000000   0.000000
                                        CHANNELS 3 Zrotation Xrotation Yrotation
                                        End Site
                                        {
                                            OFFSET   1.818440   0.000000   0.000000
                                        }
                                    }
                                }
                            }
                        }
                    }
                }
            }
            JOINT RightCollar
            {
                OFFSET  -3.911900  19.017000  -0.467062
                CHANNELS 3 Zrotation Xrotation Yrotation
                JOINT RightShoulder
                {
                    OFFSET -10.383700   0.000015   0.000000
                    CHANNELS 3 Zrotation Xrotation Yrotation
                    JOINT RightElbow
                    {
                        OFFSET -26.662100   0.001341   0.000385
                        CHANNELS 3 Zrotation Xrotation Yrotation
                        JOINT RightWrist
                        {
                            OFFSET -28.869000   0.000025  -0.000080
                            CHANNELS 3 Zrotation Xrotation Yrotation
                            JOINT RightFinger0
                            {
                                OFFSET  -2.044650  -2.323490   3.252850
                                CHANNELS 3 Zrotation Xrotation Yrotation
                                JOINT RightFinger01
                                {
                                    OFFSET  -3.088130   0.000000   0.000000
                                    CHANNELS 3 Zrotation Xrotation Yrotation
                                    JOINT RightFinger02
                                    {
                                        OFFSET  -2.639460   0.000000   0.000000
                                        CHANNELS 3 Zrotation Xrotation Yrotation
                                        End Site
                                        {
                                            OFFSET  -2.582190   0.000000   0.000000
                                        }
                                    }
                                }
                            }
                            JOINT RightFinger1
                            {
                                OFFSET  -8.364480   0.000000   3.252850
                                CHANNELS 3 Zrotation Xrotation Yrotation
                                JOINT RightFinger11
                                {
                                    OFFSET  -4.646930   0.000000   0.000000
                                    CHANNELS 3 Zrotation Xrotation Yrotation
                                    JOINT RightFinger12
                                    {
                                        OFFSET  -2.323470   0.000000   0.000000
                                        CHANNELS 3 Zrotation Xrotation Yrotation
                                        End Site
                                        {
                                            OFFSET  -2.273050   0.000000   0.000000
                                        }
                                    }
                                }
                            }
                            JOINT RightFinger2
                            {
                                OFFSET  -8.364480   0.000000   1.078090
                                CHANNELS 3 Zrotation Xrotation Yrotation
                                JOINT RightFinger21
                                {
                                    OFFSET  -5.111610   0.000000   0.000000
                                    CHANNELS 3 Zrotation Xrotation Yrotation
                                    JOINT RightFinger22
                                    {
                                        OFFSET  -2.788160   0.000000   0.000000
                                        CHANNELS 3 Zrotation Xrotation Yrotation
                                        End Site
                                        {
                                            OFFSET  -2.727660   0.000000   0.000000
                                        }
                                    }
                                }
                            }
                            JOINT RightFinger3
                            {
                                OFFSET  -7.899780   0.000000  -1.078090
                                CHANNELS 3 Zrotation Xrotation Yrotation
                                JOINT RightFinger31
                                {
                                    OFFSET  -4.646920   0.000000   0.000000
                                    CHANNELS 3 Zrotation Xrotation Yrotation
                                    JOINT RightFinger32
                                    {
                                        OFFSET  -2.323470   0.000000   0.000000
                                        CHANNELS 3 Zrotation Xrotation Yrotation
                                        End Site
                                        {
                                            OFFSET  -2.273050   0.000000   0.000000
                                        }
                                    }
                                }
                            }
                            JOINT RightFinger4
                            {
                                OFFSET  -7.435090   0.000000  -3.252850
                                CHANNELS 3 Zrotation Xrotation Yrotation
                                JOINT RightFinger41
                                {
                                    OFFSET  -3.717550   0.000000   0.000000
                                    CHANNELS 3 Zrotation Xrotation Yrotation
                                    JOINT RightFinger42
                                    {
                                        OFFSET  -1.858770   0.000000   0.000000
                                        CHANNELS 3 Zrotation Xrotation Yrotation
                                        End Site
                                        {
                                            OFFSET  -1.818440   0.000000   0.000000
                                        }
                                    }
                                }
                            }
                        }
                    }
                }
            }
        }
    }
    JOINT LeftHip
    {
        OFFSET   9.783010   0.000000   0.000000
        CHANNELS 3 Zrotation Xrotation Yrotation
        JOINT LeftKnee
        {
            OFFSET   0.000070 -41.789100   0.000028
            CHANNELS 3 Zrotation Xrotation Yrotation
            JOINT LeftAnkle
            {
                OFFSET   0.000087 -41.133200  -0.000100
                CHANNELS 3 Zrotation Xrotation Yrotation
                JOINT LeftToe
                {
                    OFFSET   0.000000  -6.358960  14.674500
                    CHANNELS 3 Zrotation Xrotation Yrotation
                    End Site
                    {
                        OFFSET   0.000000   0.000000   3.913200
                    }
                }
            }
        }
    }
    JOINT RightHip
    {
        OFFSET  -9.783020   0.000000   0.000000
        CHANNELS 3 Zrotation Xrotation Yrotation
        JOINT RightKnee
        {
            OFFSET   0.000044 -41.789100  -0.000870
            CHANNELS 3 Zrotation Xrotation Yrotation
            JOINT RightAnkle
            {
                OFFSET  -0.000090 -41.133200  -0.000245
                CHANNELS 3 Zrotation Xrotation Yrotation
                JOINT RightToe
                {
                    OFFSET   0.000000  -6.358960  14.674500
                    CHANNELS 3 Zrotation Xrotation Yrotation
                    End Site
                    {
                        OFFSET   0.000000   0.000000   3.913200
                    }
                }
            }
        }
    }
}
MOTION
Frames: 5
Frame Time:   0.016667
  1.013850  89.545800   0.335569  -2.069460  -9.042840  -2.315210  -0.941893  11.017900   2.170580  -2.385640  21.988900   4.662360  -5.324600  -9.119220  -0.846288  -9.367840 -18.008700   2.709940  -4.913990  -3.382270   6.788100 -73.689900  10.490700  -5.910150  -0.241857  -5.308720 -20.500900   9.546580  -9.680550  -5.016600  47.358400  38.799600 -60.190800 -26.819500  -0.000871  -0.000190  -8.409760   0.002533   0.000330 -34.728900   1.345430  -1.940070 -28.433100   0.000115  -0.000461 -19.899900   0.000137  -0.000329 -32.804300   1.278900  -1.984240 -49.239500  -0.001351  -0.001716 -32.793500  -0.000664  -0.001327 -28.489200  -3.891520   7.127880 -39.758800  -0.002341  -0.000549 -26.479300  -0.001513   0.004195 -34.409300  -6.850750   9.878730 -52.502800  -0.003705  -0.001281 -34.966900  -0.002275  -0.001264  -3.854770  -5.779480  11.449100  68.610900  10.263100  61.276700  -2.243780 -20.485100  43.484200 -111.133000 -58.589900 -88.592700 -41.135500  35.320300  77.266900   6.927970  -0.002878   0.000331  -1.536010   0.003405  -0.000677  45.108300  -3.035320  -3.158710  36.974400  -0.000598   0.015937  26.815000   0.005888   0.012406  34.823800  -2.439880  -3.636740  51.484500  -0.002621   0.023326  34.610700   0.006374   0.013651  32.937800  -5.116510  -7.877840  50.624700   0.009631   0.001233  33.782600   0.000247  -0.003125  45.585800  -9.506930  -9.174780  69.527400   0.017388  -0.009631  46.305300   0.003889  -0.013172   2.387820  10.135800   1.347500  -0.000234   1.141140   9.628490  -1.413820  -2.247070  -0.927607  -0.000000   0.000000   0.000000   0.631699   8.761660  -5.853170  -1.354310   5.229230 -10.110800   1.250040  -3.644030   2.297030  -0.000000   0.000000   0.000000
  1.051530  89.543800   0.386641  -2.097970  -8.992030  -2.391760  -0.968293  10.985000   2.236090  -2.451460  21.920500   4.801100  -5.311210  -9.073700  -0.840581  -9.336450 -17.921100   2.428480  -4.930250  -3.382330   6.734000 -73.656200  10.412500  -5.914790  -0.208603  -5.253320 -20.693900   9.570500  -9.720520  -5.013130  47.366500  38.853900 -60.130200 -26.865400  -0.000806   0.005821  -8.432730   0.002452   0.000032 -34.724000   1.275230  -1.839290 -28.427200   0.012513   0.005996 -19.898100   0.008610   0.005240 -32.900400   1.215480  -1.878850 -49.380000   0.022483   0.012156 -32.887000   0.013363   0.010316 -28.480100  -3.952860   7.242420 -39.761200   0.015338   0.004607 -26.480900   0.010072   0.009195 -34.391600  -6.911910   9.983180 -52.500900   0.028001   0.011555 -34.965600   0.017303   0.010703  -3.846270  -5.770540  11.365400  68.620100  10.262200  60.944000  -2.281480 -20.325400  43.768200 -110.986000 -60.511300 -89.026500 -40.820100  35.633200  77.727300   6.581550  -0.002880   0.000407  -1.709220   0.003418  -0.000785  48.486600  -2.635730  -2.470790  39.716800  -0.001237   0.009840  29.452000   0.004648   0.006203  37.053600  -2.123810  -2.948660  54.684700  -0.003679   0.012788  36.764400   0.004797   0.012240  35.315500  -5.223610  -7.340190  54.150700   0.001798  -0.000147  36.135500   0.000666  -0.003240  49.062900  -9.822670  -8.381410  74.672300   0.003476  -0.007612  49.731800  -0.003224  -0.004830   2.380920  10.116400   1.354310   0.003401   1.173570   9.625250  -1.400370  -2.304480  -0.861117  -0.000000   0.000000  -0.000000   0.554139   8.806910  -5.925000  -1.278050   5.108950  -9.972700   1.256680  -3.607960   2.311060  -0.000000   0.000000   0.000000
  1.094560  89.540600   0.440012  -2.120310  -8.938100  -2.423970  -0.990019  10.952400   2.288230  -2.504820  21.853000   4.911290  -5.291320  -9.022590  -0.832117  -9.296460 -17.823000   2.190220  -4.962910  -3.380300   6.701370 -73.654400  10.236900  -5.913270  -0.169315  -5.147370 -20.922000   9.607450  -9.804630  -5.010320  47.390900  38.915400 -60.079800 -26.916900  -0.000700   0.011831  -8.458450   0.002292  -0.000153 -34.722300   1.205020  -1.738510 -28.423900   0.024076   0.011833 -19.896800   0.015641   0.010376 -33.015600   1.152040  -1.773470 -49.549700   0.045805   0.025198 -33.000100   0.027391   0.021467 -28.473900  -4.015530   7.357000 -39.764800   0.033017   0.009315 -26.483300   0.021399   0.012520 -34.381500  -6.992640  10.088100 -52.499000   0.059707   0.024227 -34.964300   0.036598   0.022404  -3.825230  -5.719580  11.276200  68.829000  10.248900  60.357900  -2.304430 -20.055900  44.420300 -110.739000 -62.578700 -89.197800 -41.270600  36.141500  78.356800   5.843660  -0.002882   0.000470  -2.078170   0.003431  -0.000894  49.875200  -2.235270  -1.844610  40.837000  -0.001439   0.001424  30.679700   0.004287  -0.000000  38.149000  -1.807040  -2.260940  55.648000  -0.003830   0.002250  37.383600   0.004257   0.009698  36.612200  -5.327060  -7.106450  55.083400  -0.006036  -0.000548  36.752100   0.001620  -0.003279  50.476400  -9.939770  -8.105690  76.770600  -0.010436  -0.003570  51.129200  -0.006509   0.003513   2.377750  10.097100   1.367040   0.006469   1.191820   9.612520  -1.391180  -2.359230  -0.811797   0.000000   0.000000  -0.000000   0.466938   8.833640  -5.994550  -1.183470   5.032780  -9.851750   1.261750  -3.582280   2.314490   0.000000   0.000000   0.000000
  1.139030  89.535400   0.498121  -2.136780  -8.890570  -2.420220  -1.001700  10.926700   2.308690  -2.531640  21.800500   4.954540  -5.277320  -8.972790  -0.824815  -9.262760 -17.727200   2.061330  -5.010280  -3.357200   6.703970 -73.686400   9.981400  -5.911820  -0.143370  -5.014890 -21.178300   9.633040  -9.919640  -5.041900  47.411000  38.934700 -60.195500 -26.921100  -0.000615   0.009729  -8.460560   0.002069  -0.000193 -34.765500   1.223750  -1.761850 -28.459800   0.019179   0.007453 -19.921900   0.012834   0.006763 -33.198200   1.174390  -1.794690 -49.825000   0.036507   0.014725 -33.183500   0.023646   0.013136 -28.479600  -4.016440   7.357010 -39.883000   0.026036   0.004547 -26.562000   0.017354   0.006342 -34.462700  -7.011260  10.073500 -52.610500   0.050847   0.016241 -35.038600   0.032446   0.015676  -3.802890  -5.593020  11.209700  69.205600  10.205000  59.774500  -2.387910 -19.663600  45.341700 -109.921000 -64.115900 -88.515400 -42.222700  36.639600  78.524600   4.624220  -0.002875   0.000408  -2.687890   0.003426  -0.001000  49.316600  -2.377540  -2.019820  40.384000  -0.001806  -0.001201  30.233300   0.003739   0.002877  37.391700  -1.902920  -2.468550  55.244200  -0.002541   0.005397  36.955900   0.003598   0.007567  36.085900  -5.310330  -7.224940  54.297100  -0.003308  -0.001160  36.195600   0.004057  -0.003361  49.767300  -9.612020  -8.107240  75.681800  -0.005313   0.001549  50.404100  -0.002071   0.001256   2.383340  10.100200   1.379390   0.002626   1.190180   9.582700  -1.386140  -2.409740  -0.789103   0.000000   0.000000  -0.000000   0.392030   8.804790  -6.068990  -1.105900   5.034150  -9.746590   1.266140  -3.576690   2.296400   0.000000   0.000000   0.000000
  1.184460  89.529400   0.560573  -2.152840  -8.858050  -2.413780  -1.005120  10.905900   2.311480  -2.537810  21.758700   4.959990  -5.269820  -8.928350  -0.820164  -9.245800 -17.641100   2.018440  -5.064900  -3.319640   6.719730 -73.732300   9.710980  -5.908620  -0.116669  -4.882120 -21.432300   9.640650 -10.032700  -5.079600  47.434300  38.972100 -60.371000 -26.924300  -0.000307   0.007626  -8.462140   0.001764  -0.000198 -34.829300   1.242480  -1.785190 -28.512500   0.014282   0.003073 -19.958700   0.010026   0.003150 -33.380700   1.196740  -1.815900 -50.099400   0.027208   0.004251 -33.366200   0.019902   0.004805 -28.484400  -4.017350   7.357020 -40.050100   0.019055  -0.000221 -26.673300   0.013310   0.000164 -34.563700  -7.019450  10.058700 -52.773400   0.041987   0.008255 -35.147100   0.028294   0.008948  -3.777130  -5.448070  11.176200  69.576800  10.171100  59.251900  -2.527230 -19.222500  46.289800 -108.890000 -64.859500 -87.581800 -43.356400  36.937800  78.531900   3.796240  -0.002831   0.000301  -3.101880   0.003422  -0.001105  47.918100  -2.615800  -2.369210  39.249100  -0.002140  -0.002611  29.110300   0.003308   0.005755  35.923500  -2.068760  -2.860110  54.097200   0.000607   0.008543  35.993000   0.003081   0.004597  34.846100  -5.252280  -7.491180  52.693600   0.001341  -0.001616  35.086600   0.006243  -0.003442  48.255800  -9.282960  -8.166520  73.386400   0.003653   0.006554  48.875400   0.005073  -0.002073   2.396440  10.121900   1.394810  -0.008047   1.178040   9.553030  -1.382260  -2.453720  -0.784331  -0.000000   0.000000  -0.000000   0.325341   8.776450  -6.111200  -1.038670   5.035100  -9.667900   1.269770  -3.575970   2.260620  -0.000000   0.000000  -0.000000
